<svg xmlns="http://www.w3.org/2000/svg" viewBox="0 0 64 64">
  <defs>
    <linearGradient id="mark" x1="9" y1="8" x2="55" y2="56" gradientUnits="userSpaceOnUse">
      <stop stop-color="#6bdcff"/>
      <stop offset="0.58" stop-color="#8b6cff"/>
      <stop offset="1" stop-color="#f2b35c"/>
    </linearGradient>
  </defs>
  <rect width="64" height="64" rx="18" fill="#070a16"/>
  <rect x="5" y="5" width="54" height="54" rx="15" fill="url(#mark)" opacity="0.96"/>
  <path d="M43.6 18.4c-3.2-2.8-7.1-4.2-11.8-4.2-5.5 0-10 1.7-13.4 5.1-3.4 3.4-5.1 7.8-5.1 13.2 0 5.6 1.7 10.1 5.2 13.4 3.4 3.3 8 5 13.6 5 4.4 0 8.3-1.3 11.7-3.9V35.1H30.4v7.2h5.5v1.1c-1.2.6-2.5.9-3.8.9-3.1 0-5.5-1-7.2-3.1-1.7-2-2.6-4.9-2.6-8.5 0-3.4.8-6.1 2.5-8.2 1.7-2.1 4-3.2 7-3.2 2.8 0 5.1.9 6.8 2.8 1 1.1 1.7 2.5 2.1 4.2l7.1-1.8c-.7-3.4-2.1-6-4.2-8z" fill="#07101c"/>
</svg>
